<svg width="92" height="44" viewBox="0 0 92 44" fill="none" xmlns="http://www.w3.org/2000/svg">
<rect x="0.333496" width="103.667" height="44" rx="8" fill="#FFAC4B"/>
<path d="M40.9047 17.06H42.8647L46.5187 27H44.5307L43.6067 24.522H40.1347L39.2247 27H37.2367L40.9047 17.06ZM43.2567 23.164L41.8847 19.062L40.4567 23.164H43.2567ZM46.872 16.78H48.748V24.648C48.748 24.984 48.804 25.2127 48.916 25.334C49.028 25.446 49.182 25.502 49.378 25.502C49.5273 25.502 49.6813 25.4833 49.84 25.446C49.9986 25.4087 50.1386 25.362 50.26 25.306L50.512 26.734C50.26 26.8553 49.966 26.9487 49.63 27.014C49.294 27.0793 48.9906 27.112 48.72 27.112C48.132 27.112 47.6746 26.958 47.348 26.65C47.0306 26.3327 46.872 25.8847 46.872 25.306V16.78ZM50.8153 16.78H52.6913V24.648C52.6913 24.984 52.7473 25.2127 52.8593 25.334C52.9713 25.446 53.1253 25.502 53.3213 25.502C53.4707 25.502 53.6247 25.4833 53.7833 25.446C53.942 25.4087 54.082 25.362 54.2033 25.306L54.4553 26.734C54.2033 26.8553 53.9093 26.9487 53.5733 27.014C53.2373 27.0793 52.934 27.112 52.6633 27.112C52.0753 27.112 51.618 26.958 51.2913 26.65C50.974 26.3327 50.8153 25.8847 50.8153 25.306V16.78Z" fill="white"/>
</svg>
