<svg width="15" height="14" viewBox="0 0 15 14" fill="none" xmlns="http://www.w3.org/2000/svg">
<path d="M9.94446 1.78078C9.8772 1.71335 9.7973 1.65985 9.70933 1.62335C9.62136 1.58684 9.52705 1.56805 9.43181 1.56805C9.33657 1.56805 9.24226 1.58684 9.15429 1.62335C9.06632 1.65985 8.98642 1.71335 8.91916 1.78078L4.10544 6.5945C4.05174 6.64809 4.00913 6.71175 3.98007 6.78182C3.951 6.8519 3.93604 6.92702 3.93604 7.00288C3.93604 7.07875 3.951 7.15387 3.98007 7.22395C4.00913 7.29402 4.05174 7.35768 4.10544 7.41127L8.91916 12.225C9.203 12.5088 9.66062 12.5088 9.94446 12.225C10.2283 11.9411 10.2283 11.4835 9.94446 11.1997L5.75056 6.99999L9.95026 2.80029C10.2283 2.52224 10.2283 2.05883 9.94446 1.78078Z" fill="#1E232C" stroke="#1E232C" stroke-width="0.2"/>
</svg>
