<svg width="18" height="18" viewBox="0 0 18 18" fill="none" xmlns="http://www.w3.org/2000/svg">
<path d="M9 1V17" stroke="white" stroke-width="0.8" stroke-linecap="round" stroke-linejoin="round"/>
<path d="M17 9H1" stroke="white" stroke-width="0.8" stroke-linecap="round" stroke-linejoin="round"/>
<path d="M3 9C3 10.5913 3.63214 12.1174 4.75736 13.2426C5.88258 14.3679 7.4087 15 9 15C10.5913 15 12.1174 14.3679 13.2426 13.2426C14.3679 12.1174 15 10.5913 15 9C15 7.4087 14.3679 5.88258 13.2426 4.75736C12.1174 3.63214 10.5913 3 9 3C7.4087 3 5.88258 3.63214 4.75736 4.75736C3.63214 5.88258 3 7.4087 3 9Z" stroke="white" stroke-width="0.8" stroke-linecap="round" stroke-linejoin="round"/>
<path d="M6 9C6 9.79565 6.31607 10.5587 6.87868 11.1213C7.44129 11.6839 8.20435 12 9 12C9.79565 12 10.5587 11.6839 11.1213 11.1213C11.6839 10.5587 12 9.79565 12 9C12 8.20435 11.6839 7.44129 11.1213 6.87868C10.5587 6.31607 9.79565 6 9 6C8.20435 6 7.44129 6.31607 6.87868 6.87868C6.31607 7.44129 6 8.20435 6 9Z" stroke="white" stroke-width="0.8" stroke-linecap="round" stroke-linejoin="round"/>
</svg>
