<svg width="97" height="97" viewBox="0 0 97 97" fill="none" xmlns="http://www.w3.org/2000/svg">
<g id="Face Id 4 1">
<path id="Vector" d="M93.9687 75.7812V87.9062C93.9687 89.5141 93.33 91.0561 92.1931 92.1931C91.0561 93.33 89.5141 93.9687 87.9062 93.9687H75.7812" stroke="white" stroke-width="1.5" stroke-linecap="round" stroke-linejoin="round"/>
<path id="Vector_2" d="M75.7812 3.03125H87.9062C89.5141 3.03125 91.0561 3.66998 92.1931 4.80692C93.33 5.94385 93.9687 7.48587 93.9687 9.09375V21.2187" stroke="white" stroke-width="1.5" stroke-linecap="round" stroke-linejoin="round"/>
<path id="Vector_3" d="M3.03125 21.2187V9.09375C3.03125 7.48587 3.66998 5.94385 4.80692 4.80692C5.94385 3.66998 7.48587 3.03125 9.09375 3.03125H21.2187" stroke="white" stroke-width="1.5" stroke-linecap="round" stroke-linejoin="round"/>
<path id="Vector_4" d="M21.2187 93.9687H9.09375C7.48587 93.9687 5.94385 93.33 4.80692 92.1931C3.66998 91.0561 3.03125 89.5141 3.03125 87.9062V75.7812" stroke="white" stroke-width="1.5" stroke-linecap="round" stroke-linejoin="round"/>
<path id="Vector_5" d="M31.8281 36.375C31.8281 40.7967 33.5846 45.0372 36.7112 48.1638C39.8378 51.2904 44.0783 53.0469 48.5 53.0469C52.9217 53.0469 57.1622 51.2904 60.2888 48.1638C63.4154 45.0372 65.1719 40.7967 65.1719 36.375C65.1719 31.9533 63.4154 27.7128 60.2888 24.5862C57.1622 21.4596 52.9217 19.7031 48.5 19.7031C44.0783 19.7031 39.8378 21.4596 36.7112 24.5862C33.5846 27.7128 31.8281 31.9533 31.8281 36.375Z" stroke="white" stroke-width="1.5" stroke-linecap="round" stroke-linejoin="round"/>
<path id="Vector_6" d="M74.2252 77.2968C72.3445 71.9767 68.8608 67.3706 64.2536 64.1127C59.6465 60.8549 54.1426 59.1055 48.5 59.1055C42.8573 59.1055 37.3535 60.8549 32.7463 64.1127C28.1392 67.3706 24.6554 71.9767 22.7748 77.2968" stroke="white" stroke-width="1.5" stroke-linecap="round" stroke-linejoin="round"/>
</g>
</svg>
