<svg width="19" height="16" viewBox="0 0 19 16" fill="none" xmlns="http://www.w3.org/2000/svg">
<path d="M16.9248 2.13985C16.5896 1.77967 16.1864 1.49291 15.7396 1.29697C15.2929 1.10103 14.8118 1 14.3258 1C13.8397 1 13.3587 1.10103 12.9119 1.29697C12.4651 1.49291 12.0619 1.77967 11.7267 2.13985L9.49978 4.49569L7.27284 2.13985C6.93767 1.77997 6.53457 1.49347 6.08798 1.29771C5.64138 1.10195 5.16059 1.00101 4.67474 1.00101C4.18889 1.00101 3.7081 1.10195 3.2615 1.29771C2.81491 1.49347 2.41181 1.77997 2.07664 2.13985C1.38559 2.88046 1 3.86503 1 4.88897C1 5.91291 1.38559 6.89748 2.07664 7.6381L8.71024 14.6534C8.81221 14.763 8.93485 14.8501 9.07072 14.9097C9.2066 14.9693 9.35289 15 9.50072 15C9.64855 15 9.79484 14.9693 9.93072 14.9097C10.0666 14.8501 10.1892 14.763 10.2912 14.6534L16.9248 7.6381C17.615 6.89703 18 5.91263 18 4.88897C18 3.86531 17.615 2.88091 16.9248 2.13985Z" stroke="white" stroke-width="1.5" stroke-linecap="round" stroke-linejoin="round"/>
</svg>
