<svg width="32" height="40" viewBox="0 0 32 40" fill="none" xmlns="http://www.w3.org/2000/svg">
<path d="M25.9441 20.2734C25.8906 20.4039 25.7995 20.5155 25.6826 20.5943C25.5656 20.6731 25.428 20.7155 25.2869 20.7162H23.1438V27.8576C23.1438 28.4258 22.918 28.9707 22.5161 29.3725C22.1142 29.7743 21.569 30 21.0006 30H18.1431C17.9537 30 17.772 29.9248 17.638 29.7908C17.504 29.6569 17.4288 29.4753 17.4288 29.2859V25.001C17.4288 24.8116 17.3535 24.63 17.2195 24.4961C17.0855 24.3621 16.9038 24.2869 16.7144 24.2869H15.2856C15.0962 24.2869 14.9145 24.3621 14.7805 24.4961C14.6465 24.63 14.5712 24.8116 14.5712 25.001V29.2859C14.5712 29.4753 14.496 29.6569 14.362 29.7908C14.228 29.9248 14.0463 30 13.8569 30H10.9994C10.431 30 9.88584 29.7743 9.48393 29.3725C9.08201 28.9707 8.85622 28.4258 8.85622 27.8576V20.7162H6.71308C6.57205 20.7155 6.43437 20.6731 6.31742 20.5943C6.20046 20.5155 6.10945 20.4039 6.05585 20.2734C6.00115 20.1434 5.9862 20.0001 6.0129 19.8615C6.0396 19.723 6.10675 19.5955 6.20587 19.495L15.4928 10.2112C15.5592 10.1443 15.6382 10.0912 15.7253 10.0549C15.8123 10.0187 15.9057 10 16 10C16.0943 10 16.1877 10.0187 16.2747 10.0549C16.3618 10.0912 16.4408 10.1443 16.5072 10.2112L25.7941 19.495C25.8933 19.5955 25.9604 19.723 25.9871 19.8615C26.0138 20.0001 25.9989 20.1434 25.9441 20.2734Z" fill="#FFAC4B"/>
</svg>
