<svg width="24" height="24" viewBox="0 0 24 24" fill="none" xmlns="http://www.w3.org/2000/svg">
<g id="Login Key" clip-path="url(#clip0_102_211)">
<g id="Group">
<path id="Vector" d="M12.82 14.5099L15.36 11.9999L17.12 12.4699C17.3908 12.5332 17.6735 12.5231 17.939 12.4404C18.2045 12.3578 18.4431 12.2057 18.63 11.9999C18.8133 11.8035 18.9434 11.5636 19.0082 11.3029C19.0729 11.0422 19.0701 10.7692 19 10.5099L18.53 8.75991L19.35 7.99991L21.11 8.46991C21.3808 8.53325 21.6635 8.52307 21.929 8.44043C22.1945 8.3578 22.4331 8.20571 22.62 7.99991C22.8034 7.80548 22.9344 7.56773 23.0008 7.3089C23.0673 7.05007 23.067 6.77861 23 6.51991L22.53 4.76991C22.9716 4.32832 23.2197 3.72941 23.2197 3.10491C23.2197 2.48041 22.9716 1.8815 22.53 1.43991C22.0884 0.998324 21.4895 0.750244 20.865 0.750244C20.2405 0.750244 19.6416 0.998324 19.2 1.43991L9.49003 11.1799C8.14617 10.609 6.64557 10.5235 5.24552 10.9379C3.84548 11.3523 2.63321 12.2408 1.81657 13.4512C0.999935 14.6615 0.629806 16.1183 0.769649 17.5716C0.909492 19.025 1.55059 20.3845 2.58303 21.4169C3.61547 22.4493 4.97492 23.0904 6.4283 23.2303C7.88167 23.3701 9.33842 23 10.5488 22.1834C11.7591 21.3667 12.6477 20.1545 13.0621 18.7544C13.4765 17.3544 13.3909 15.8538 12.82 14.5099Z" stroke="white" stroke-width="1.5" stroke-linecap="round" stroke-linejoin="round"/>
<path id="Vector_2" d="M4.26001 17.8399C4.26001 18.0895 4.30915 18.3365 4.40464 18.567C4.50012 18.7976 4.64008 19.007 4.81651 19.1834C4.99294 19.3599 5.20239 19.4998 5.43291 19.5953C5.66343 19.6908 5.9105 19.7399 6.16001 19.7399C6.40952 19.7399 6.65659 19.6908 6.88711 19.5953C7.11763 19.4998 7.32708 19.3599 7.50351 19.1834C7.67994 19.007 7.8199 18.7976 7.91538 18.567C8.01086 18.3365 8.06001 18.0895 8.06001 17.8399C8.06001 17.336 7.85983 16.8528 7.50351 16.4964C7.14719 16.1401 6.66392 15.9399 6.16001 15.9399C5.6561 15.9399 5.17283 16.1401 4.81651 16.4964C4.46019 16.8528 4.26001 17.336 4.26001 17.8399Z" stroke="white" stroke-width="1.5" stroke-linecap="round" stroke-linejoin="round"/>
</g>
</g>
<defs>
<clipPath id="clip0_102_211">
<rect width="24" height="24" fill="white"/>
</clipPath>
</defs>
</svg>
