<svg width="22" height="22" viewBox="0 0 22 22" fill="none" xmlns="http://www.w3.org/2000/svg">
<g id="Envelope" clip-path="url(#clip0_102_355)">
<path id="Vector" d="M2.0625 4.125H19.9375C19.9375 4.125 21.3125 4.125 21.3125 5.5V16.5C21.3125 16.5 21.3125 17.875 19.9375 17.875H2.0625C2.0625 17.875 0.6875 17.875 0.6875 16.5V5.5C0.6875 5.5 0.6875 4.125 2.0625 4.125Z" stroke="white" stroke-width="1.5" stroke-linecap="round" stroke-linejoin="round"/>
<path id="Vector_2" d="M14.3798 9.1438L17.875 12.375" stroke="white" stroke-width="1.5" stroke-linecap="round" stroke-linejoin="round"/>
<path id="Vector_3" d="M7.62025 9.1438L4.125 12.375" stroke="white" stroke-width="1.5" stroke-linecap="round" stroke-linejoin="round"/>
<path id="Vector_4" d="M20.9733 4.59619L12.253 10.6095C11.8846 10.8639 11.4476 11.0001 10.9999 11.0001C10.5523 11.0001 10.1152 10.8639 9.74686 10.6095L1.02661 4.59619" stroke="white" stroke-width="1.5" stroke-linecap="round" stroke-linejoin="round"/>
</g>
<defs>
<clipPath id="clip0_102_355">
<rect width="22" height="22" fill="white"/>
</clipPath>
</defs>
</svg>
