<svg width="22" height="22" viewBox="0 0 22 22" fill="none" xmlns="http://www.w3.org/2000/svg">
<g id="Phone Actions Receive">
<path id="Vector" d="M11.6829 20.3179L11.6921 20.3243C12.4841 20.8287 13.4245 21.0477 14.3579 20.9452C15.2912 20.8427 16.1617 20.4248 16.8254 19.7606L17.402 19.184C17.5298 19.0563 17.6311 18.9047 17.7003 18.7378C17.7694 18.5709 17.805 18.3921 17.805 18.2114C17.805 18.0308 17.7694 17.8519 17.7003 17.685C17.6311 17.5182 17.5298 17.3665 17.402 17.2388L14.9719 14.8088C14.8442 14.681 14.6926 14.5796 14.5257 14.5105C14.3588 14.4413 14.18 14.4057 13.9993 14.4057C13.8187 14.4057 13.6398 14.4413 13.4729 14.5105C13.3061 14.5796 13.1544 14.681 13.0267 14.8088C12.7689 15.0665 12.4192 15.2113 12.0546 15.2113C11.69 15.2113 11.3403 15.0665 11.0825 14.8088L7.19217 10.9193C6.93439 10.6615 6.78958 10.3118 6.78958 9.94722C6.78958 9.58262 6.93439 9.23295 7.19217 8.9751C7.31994 8.84741 7.4213 8.69579 7.49046 8.52891C7.55961 8.36203 7.59521 8.18316 7.59521 8.00251C7.59521 7.82187 7.55961 7.643 7.49046 7.47612C7.4213 7.30924 7.31994 7.15762 7.19217 7.02993L4.76117 4.59985C4.50332 4.34207 4.15364 4.19727 3.78904 4.19727C3.42444 4.19727 3.07477 4.34207 2.81692 4.59985L2.23942 5.17643C1.57537 5.84026 1.15768 6.71077 1.05534 7.64413C0.953006 8.57748 1.17216 9.51782 1.67658 10.3098L1.68208 10.3189C4.34608 14.2604 7.74096 17.6547 11.6829 20.3179Z" stroke="white" stroke-width="1.5" stroke-linecap="round" stroke-linejoin="round"/>
</g>
</svg>
