<svg width="14" height="14" viewBox="0 0 14 14" fill="none" xmlns="http://www.w3.org/2000/svg">
<g clip-path="url(#clip0_79_176)">
<path d="M11.1119 3.93751H2.87927C2.68158 3.92945 2.48769 3.99343 2.33362 4.11756C2.17955 4.2417 2.07579 4.41754 2.04161 4.61242L0.874941 12.7295C0.868898 12.8409 0.886484 12.9524 0.926544 13.0565C0.966605 13.1607 1.02823 13.2552 1.10739 13.3339C1.18655 13.4125 1.28144 13.4736 1.38584 13.513C1.49025 13.5524 1.6018 13.5692 1.71319 13.5625H12.2779C12.3893 13.5693 12.5008 13.5524 12.6052 13.513C12.7096 13.4736 12.8044 13.4125 12.8836 13.3338C12.9627 13.2552 13.0242 13.1607 13.0642 13.0565C13.1042 12.9523 13.1217 12.8409 13.1156 12.7295L11.9489 4.61242C11.9148 4.41765 11.8111 4.24188 11.6572 4.11776C11.5032 3.99364 11.3095 3.92959 11.1119 3.93751Z" stroke="black" stroke-width="1.5" stroke-linecap="round" stroke-linejoin="round"/>
<path d="M9.13605 2.22075C9.04022 1.72021 8.77329 1.26857 8.38101 0.94323C7.98873 0.617891 7.49552 0.439102 6.98589 0.4375C6.47876 0.439724 5.98806 0.61747 5.59715 0.940532C5.20624 1.26359 4.93925 1.71204 4.84155 2.20967" stroke="black" stroke-width="1.5" stroke-linecap="round" stroke-linejoin="round"/>
<path d="M8.74536 9.1875L6.99536 10.9375L5.24536 9.1875" stroke="black" stroke-width="1.5" stroke-linecap="round" stroke-linejoin="round"/>
<path d="M6.99536 10.9375V6.5625" stroke="black" stroke-width="1.5" stroke-linecap="round" stroke-linejoin="round"/>
</g>
<defs>
<clipPath id="clip0_79_176">
<rect width="14" height="14" fill="white"/>
</clipPath>
</defs>
</svg>
