<svg width="136" height="134" viewBox="0 0 136 134" fill="none" xmlns="http://www.w3.org/2000/svg">
<g clip-path="url(#clip0_643_1004)">
<path d="M1.30188 52.1927L43.6582 52.3337H44.7431L48.8772 52.3454L53.2812 52.363L55.7441 52.3689L97.3264 52.504L101.29 52.5157L104.305 52.5275V50.5305L104.299 4.08802L104.094 2.80757L104 2.20847L103.841 1.23345L102.88 1.022L99.7248 0.3113H98.81H98.6516L5.82896 0.0117472L2.69167 0L1.30188 52.1927Z" fill="url(#paint0_linear_643_1004)"/>
<path d="M29.6488 133.395L30.5226 133.66L35.853 133.642L37.5712 133.63L40.4622 133.619L123.351 133.883L131.889 133.912H133.977L134.915 98.7001L135.367 81.7254L92.5881 81.5903L84.7947 81.5668H84.437L83.3463 81.561H81.2352L76.626 81.5375L71.7764 81.5198L67.2376 81.5081L64.1648 81.4963L51.3577 81.4611L29.6605 81.3906V101.995V102.353V114.153L29.6547 118.412V123.68V130.359V132.356V133.395H29.6488ZM123.814 104.503C125.28 103.158 127.556 103.252 128.899 104.721C130.241 106.189 130.148 108.468 128.682 109.813C127.216 111.158 124.94 111.058 123.597 109.596C122.255 108.133 122.348 105.848 123.814 104.503Z" fill="url(#paint1_linear_643_1004)"/>
<path d="M98.6516 0.311559C98.7689 0.235202 106.445 0.235202 111.629 5.39808C112.784 6.54931 113.546 7.42447 117.95 12.2467C118.672 13.0396 119.399 13.8267 120.12 14.6196L136 32.0054C131.602 36.9334 112.233 55.4352 99.5429 68.4452C86.2021 82.1247 45.8748 115.017 38.9669 120.984C37.97 121.848 36.4453 123.081 34.6275 124.837C32.0473 127.328 31.3084 127.815 30.9859 129.583C30.9096 129.994 30.6809 131.269 31.4081 132.35C32.2466 133.595 34.9324 133.53 36.932 133.648C36.2225 133.795 34.217 134.041 32.8917 134.006C26.4998 133.818 21.8437 129.031 13.3643 119.093C8.27423 113.126 3.81752 107.651 0.00585938 102.841C25.4091 80.2981 46.2911 61.1737 61.6668 46.9126C62.5698 46.0727 63.4729 45.2386 64.376 44.3987C65.2615 43.5764 66.1469 42.7482 67.0324 41.9259C67.9003 41.1154 68.7623 40.3107 69.6302 39.5001C70.4746 38.7072 71.3191 37.9143 72.1635 37.1213C72.9845 36.346 73.8113 35.5707 74.6323 34.7895C75.4298 34.0318 76.2332 33.2741 77.0307 32.5106C77.8048 31.7705 78.5788 31.0304 79.347 30.2903C80.0918 29.5679 80.8424 28.8513 81.5871 28.123C82.3084 27.424 83.0238 26.7251 83.7392 26.0202C84.4253 25.3448 85.1173 24.6634 85.7975 23.9762C86.4543 23.3184 87.1111 22.6606 87.762 22.0027C88.3836 21.3684 89.0052 20.734 89.6268 20.0938C90.2132 19.4829 90.7996 18.8721 91.3801 18.2554C91.9314 17.6739 92.4826 17.0865 93.0279 16.4933C93.544 15.9353 94.0542 15.3714 94.5585 14.8076C95.0335 14.2789 95.5026 13.7386 95.9658 13.1982C96.3998 12.6931 96.8279 12.188 97.2501 11.6711C97.643 11.1953 98.0241 10.7137 98.4053 10.232C98.7513 9.78565 99.0914 9.33339 99.4257 8.88112C99.4257 8.88112 99.9124 8.20566 100.305 7.6183C101.314 6.09704 102.651 4.09415 102.235 2.64925C101.713 0.846056 98.7278 0.387916 98.6633 0.323306L98.6516 0.311559Z" fill="url(#paint2_linear_643_1004)"/>
<path d="M76.5031 61.4209C80.8366 66.1198 85.1702 70.801 89.5037 75.4646" stroke="white" stroke-width="2" stroke-miterlimit="10"/>
<path d="M61.057 75.3643C65.3202 80.2041 69.5834 85.0381 73.8466 89.8544" stroke="white" stroke-width="2" stroke-miterlimit="10"/>
<path d="M45.4351 88.9033C49.6279 93.89 53.8207 98.8767 58.0135 103.857" stroke="white" stroke-width="2" stroke-miterlimit="10"/>
<path d="M29.8248 102.16C33.9473 107.3 38.0697 112.445 42.1922 117.584" stroke="white" stroke-width="2" stroke-miterlimit="10"/>
<path d="M13.5872 115.992C17.6334 121.29 21.6796 126.606 25.7258 131.915" stroke="white" stroke-width="2" stroke-miterlimit="10"/>
<path d="M91.7614 47.1826C96.1653 51.7405 100.569 56.2867 104.967 60.7976" stroke="white" stroke-width="2" stroke-miterlimit="10"/>
<path d="M121.041 19.207C125.58 23.5241 130.118 27.8177 134.651 32.0761" stroke="white" stroke-width="2" stroke-miterlimit="10"/>
<path d="M105.988 33.5322C110.456 37.9668 114.925 42.3837 119.393 46.7713" stroke="white" stroke-width="2" stroke-miterlimit="10"/>
<path d="M121.076 32.6631C123.674 35.1652 124.97 36.4104 127.562 38.895" stroke="white" stroke-width="2.5" stroke-miterlimit="10"/>
<path d="M118.367 35.0127C120.953 37.5266 122.249 38.7777 124.835 41.2798" stroke="white" stroke-width="2.5" stroke-miterlimit="10"/>
<path d="M115.558 37.2744C118.138 39.8001 119.428 41.0629 122.008 43.5709" stroke="white" stroke-width="2.5" stroke-miterlimit="10"/>
<path d="M123.697 30.2197C126.301 32.7101 127.603 33.9495 130.201 36.4222" stroke="white" stroke-width="2.5" stroke-miterlimit="10"/>
<path d="M126.219 27.6943C128.828 30.173 130.13 31.4064 132.74 33.8675" stroke="white" stroke-width="2.5" stroke-miterlimit="10"/>
<path d="M106.011 47.335C108.568 49.9076 109.846 51.1939 112.397 53.7548" stroke="white" stroke-width="2.5" stroke-miterlimit="10"/>
<path d="M103.296 49.7021C105.847 52.2924 107.119 53.5846 109.664 56.1572" stroke="white" stroke-width="2.5" stroke-miterlimit="10"/>
<path d="M100.487 51.9756C103.026 54.5776 104.299 55.8756 106.838 58.4659" stroke="white" stroke-width="2.5" stroke-miterlimit="10"/>
<path d="M108.632 44.874C111.195 47.4349 112.473 48.7153 115.036 51.2645" stroke="white" stroke-width="2.5" stroke-miterlimit="10"/>
<path d="M111.154 42.3193C113.722 44.8685 115.007 46.143 117.575 48.6746" stroke="white" stroke-width="2.5" stroke-miterlimit="10"/>
<path d="M90.9579 61.4961C93.4736 64.151 94.7344 65.4725 97.2501 68.1156" stroke="white" stroke-width="2.5" stroke-miterlimit="10"/>
<path d="M88.2487 63.8633C90.7585 66.5299 92.0134 67.8632 94.5232 70.5181" stroke="white" stroke-width="2.5" stroke-miterlimit="10"/>
<path d="M85.4457 66.1309C87.9496 68.8151 89.1987 70.1543 91.7027 72.8267" stroke="white" stroke-width="2.5" stroke-miterlimit="10"/>
<path d="M93.5792 59.0293C96.1008 61.6665 97.3616 62.9881 99.889 65.6136" stroke="white" stroke-width="2.5" stroke-miterlimit="10"/>
<path d="M96.1066 56.4688C98.634 59.0942 99.9006 60.4041 102.428 63.0178" stroke="white" stroke-width="2.5" stroke-miterlimit="10"/>
<path d="M75.553 75.9688C78.0276 78.7058 79.2649 80.0744 81.7455 82.8056" stroke="white" stroke-width="2.5" stroke-miterlimit="10"/>
<path d="M72.8438 78.3184C75.3125 81.0731 76.5499 82.4475 79.0186 85.1905" stroke="white" stroke-width="2.5" stroke-miterlimit="10"/>
<path d="M70.0408 80.5625C72.5037 83.329 73.7351 84.7151 76.1981 87.4757" stroke="white" stroke-width="2.5" stroke-miterlimit="10"/>
<path d="M78.1743 73.5137C80.6548 76.239 81.898 77.5958 84.3785 80.3094" stroke="white" stroke-width="2.5" stroke-miterlimit="10"/>
<path d="M80.7017 70.9531C83.1939 73.6608 84.4371 75.0176 86.9235 77.7136" stroke="white" stroke-width="2.5" stroke-miterlimit="10"/>
<path d="M27.8486 116.738C30.2001 119.746 31.3788 121.255 33.7303 124.262" stroke="white" stroke-width="2.5" stroke-miterlimit="10"/>
<path d="M25.1453 118.935C27.4909 121.959 28.6637 123.475 31.0094 126.5" stroke="white" stroke-width="2.5" stroke-miterlimit="10"/>
<path d="M22.3599 121.008C24.6996 124.05 25.8666 125.572 28.2064 128.614" stroke="white" stroke-width="2.5" stroke-miterlimit="10"/>
<path d="M30.464 114.418C32.8272 117.413 34.0059 118.911 36.3633 121.901" stroke="white" stroke-width="2.5" stroke-miterlimit="10"/>
<path d="M32.9915 111.98C35.3605 114.958 36.5451 116.45 38.9083 119.428" stroke="white" stroke-width="2.5" stroke-miterlimit="10"/>
<path d="M44.0452 103.363C46.4377 106.277 47.6399 107.739 50.0324 110.652" stroke="white" stroke-width="2.5" stroke-miterlimit="10"/>
<path d="M41.3359 105.631C43.7226 108.562 44.9189 110.03 47.3056 112.955" stroke="white" stroke-width="2.5" stroke-miterlimit="10"/>
<path d="M38.5447 107.774C40.9255 110.723 42.1159 112.197 44.4967 115.14" stroke="white" stroke-width="2.5" stroke-miterlimit="10"/>
<path d="M46.6605 100.979C49.0648 103.88 50.2611 105.331 52.6654 108.227" stroke="white" stroke-width="2.5" stroke-miterlimit="10"/>
<path d="M49.1938 98.4824C51.604 101.366 52.8061 102.811 55.2163 105.689" stroke="white" stroke-width="2.5" stroke-miterlimit="10"/>
<path d="M59.3622 89.8955C61.7958 92.7207 63.0155 94.1362 65.4491 96.9614" stroke="white" stroke-width="2.5" stroke-miterlimit="10"/>
<path d="M56.653 92.21C59.0807 95.0528 60.2946 96.4742 62.7223 99.3111" stroke="white" stroke-width="2.5" stroke-miterlimit="10"/>
<path d="M53.8558 94.4121C56.2777 97.2725 57.4857 98.6998 59.9076 101.554" stroke="white" stroke-width="2.5" stroke-miterlimit="10"/>
<path d="M61.9835 87.4697C64.423 90.2832 65.6486 91.687 68.088 94.4945" stroke="white" stroke-width="2.5" stroke-miterlimit="10"/>
<path d="M64.5109 84.9385C66.9621 87.7343 68.1818 89.1322 70.633 91.928" stroke="white" stroke-width="2.5" stroke-miterlimit="10"/>
<path d="M124.712 126.829C128.43 130.312 132.218 132.185 134.71 133.172L135.513 80.9678C133.649 81.4024 124.876 83.6696 119.364 92.3155C112.761 102.677 116.291 113.631 116.778 115.04C117.821 117.736 120.067 122.476 124.712 126.829ZM124.067 108.967C122.706 107.516 122.777 105.237 124.225 103.875C125.673 102.512 127.949 102.583 129.309 104.033C130.67 105.484 130.599 107.763 129.151 109.126C127.702 110.488 125.427 110.418 124.067 108.967Z" fill="url(#paint3_linear_643_1004)"/>
<path d="M123.515 109.49C125.163 111.246 127.919 111.334 129.673 109.684C131.426 108.033 131.514 105.272 129.866 103.516C128.218 101.76 125.462 101.672 123.709 103.322C121.955 104.973 121.868 107.733 123.515 109.484V109.49ZM124.067 108.973C122.706 107.522 122.776 105.243 124.225 103.88C125.673 102.518 127.949 102.588 129.309 104.039C130.67 105.49 130.599 107.769 129.151 109.131C127.702 110.494 125.427 110.424 124.067 108.973Z" fill="#ABABAB"/>
</g>
<defs>
<linearGradient id="paint0_linear_643_1004" x1="93.2621" y1="-10.3029" x2="12.1508" y2="64.0318" gradientUnits="userSpaceOnUse">
<stop stop-color="#005B97"/>
<stop offset="0.57" stop-color="#1E9CD7"/>
<stop offset="0.87" stop-color="#0075BE"/>
</linearGradient>
<linearGradient id="paint1_linear_643_1004" x1="123.758" y1="69.0863" x2="40.5703" y2="145.324" gradientUnits="userSpaceOnUse">
<stop offset="0.44" stop-color="#0075BE"/>
<stop offset="0.58" stop-color="#1E9CD7"/>
<stop offset="0.99" stop-color="#005B97"/>
</linearGradient>
<linearGradient id="paint2_linear_643_1004" x1="122.24" y1="16.9042" x2="12.0376" y2="117.899" gradientUnits="userSpaceOnUse">
<stop offset="0.22" stop-color="#0075BE"/>
<stop offset="0.45" stop-color="#5EB9F4"/>
<stop offset="0.47" stop-color="#54BBF4"/>
<stop offset="0.49" stop-color="#3BC2F7"/>
<stop offset="0.53" stop-color="#12CEFB"/>
<stop offset="0.54" stop-color="#00D3FD"/>
<stop offset="0.92" stop-color="#005B97"/>
</linearGradient>
<linearGradient id="paint3_linear_643_1004" x1="125.891" y1="91.3913" x2="124.732" y2="130.718" gradientUnits="userSpaceOnUse">
<stop offset="0.07" stop-color="#74A5B8"/>
<stop offset="0.15" stop-color="#7DA9BB"/>
<stop offset="0.28" stop-color="#96B7C3"/>
<stop offset="0.44" stop-color="#BFCDD0"/>
<stop offset="0.53" stop-color="#DADBD9"/>
<stop offset="0.66" stop-color="#CCC5CB"/>
</linearGradient>
<clipPath id="clip0_643_1004">
<rect width="136" height="134" fill="white"/>
</clipPath>
</defs>
</svg>
