<svg width="20" height="17" viewBox="0 0 20 17" fill="none" xmlns="http://www.w3.org/2000/svg">
<g clip-path="url(#clip0_249_198)">
<path d="M5.25 13.8129H13.1033C13.3841 13.8131 13.6558 13.7242 13.8704 13.5621C14.0848 13.4 14.2282 13.1752 14.275 12.9275L16.3333 1.94831C16.3809 1.69573 16.529 1.46705 16.7501 1.30436C16.9712 1.14166 17.2505 1.05591 17.5367 1.0629H18.3283" stroke="white" stroke-width="1.5" stroke-linecap="round" stroke-linejoin="round"/>
<path d="M6.68604 15.9443C6.52208 15.9443 6.38916 15.8254 6.38916 15.6787C6.38916 15.532 6.52208 15.4131 6.68604 15.4131" stroke="white" stroke-width="1.5"/>
<path d="M6.68604 15.9443C6.85 15.9443 6.98291 15.8254 6.98291 15.6787C6.98291 15.532 6.85 15.4131 6.68604 15.4131" stroke="white" stroke-width="1.5"/>
<path d="M12.6797 15.9443C12.5157 15.9443 12.3828 15.8254 12.3828 15.6787C12.3828 15.532 12.5157 15.4131 12.6797 15.4131" stroke="white" stroke-width="1.5"/>
<path d="M12.6797 15.9443C12.8436 15.9443 12.9766 15.8254 12.9766 15.6787C12.9766 15.532 12.8436 15.4131 12.6797 15.4131" stroke="white" stroke-width="1.5"/>
<path d="M14.7501 10.625H5.15514C4.62987 10.6203 4.12115 10.46 3.7086 10.169C3.29604 9.87806 3.00294 9.47297 2.87514 9.01708L1.70347 4.90875C1.68355 4.83054 1.68316 4.74937 1.70231 4.67101C1.72147 4.59265 1.75971 4.51904 1.8143 4.45542C1.86962 4.39169 1.94042 4.34007 2.02136 4.30448C2.10228 4.26888 2.19121 4.25025 2.28139 4.25H15.9218" stroke="white" stroke-width="1.5" stroke-linecap="round" stroke-linejoin="round"/>
<path d="M14.7503 4.24988L11.7816 1.59363C11.5014 1.34535 11.123 1.20605 10.7287 1.20605C10.3343 1.20605 9.95593 1.34535 9.67576 1.59363L6.70703 4.24988" stroke="white" stroke-width="1.5" stroke-linecap="round" stroke-linejoin="round"/>
<path d="M8.82042 2.36527L5.33708 1.45152C5.15048 1.40169 4.95469 1.38546 4.76103 1.4038C4.56739 1.42213 4.37971 1.47464 4.2089 1.55831C4.03808 1.64197 3.88751 1.75512 3.7659 1.89121C3.64429 2.02729 3.55405 2.1836 3.50042 2.3511L2.875 4.24943" stroke="white" stroke-width="1.5" stroke-linecap="round" stroke-linejoin="round"/>
</g>
<defs>
<clipPath id="clip0_249_198">
<rect width="19" height="17" fill="white" transform="translate(0.5)"/>
</clipPath>
</defs>
</svg>
