<svg width="6" height="7" viewBox="0 0 6 7" fill="none" xmlns="http://www.w3.org/2000/svg">
<circle cx="2.89231" cy="3.3386" r="2.53077" fill="#D9F4FF" stroke="#E10000" stroke-width="0.723077"/>
<path d="M2.58088 3.75951L2.42522 1.89258H3.35919L3.20353 3.75951H2.58088ZM2.89221 4.78489C2.75161 4.78489 2.63612 4.74812 2.54573 4.67459C2.45535 4.60105 2.41016 4.5139 2.41016 4.41313C2.41016 4.30964 2.45535 4.22385 2.54573 4.15577C2.63612 4.08496 2.75161 4.04955 2.89221 4.04955C3.03615 4.04955 3.15164 4.08496 3.23868 4.15577C3.32907 4.22385 3.37426 4.30964 3.37426 4.41313C3.37426 4.5139 3.32907 4.60105 3.23868 4.67459C3.15164 4.74812 3.03615 4.78489 2.89221 4.78489Z" fill="#E10000"/>
</svg>
