<svg width="11" height="11" viewBox="0 0 11 11" fill="none" xmlns="http://www.w3.org/2000/svg">
<g clip-path="url(#clip0_267_1810)">
<path d="M1.1875 6.6875C1.27038 6.6875 1.34987 6.72042 1.40847 6.77903C1.46708 6.83763 1.5 6.91712 1.5 7V8.5625C1.5 8.72826 1.56585 8.88723 1.68306 9.00444C1.80027 9.12165 1.95924 9.1875 2.125 9.1875H9.625C9.79076 9.1875 9.94973 9.12165 10.0669 9.00444C10.1842 8.88723 10.25 8.72826 10.25 8.5625V7C10.25 6.91712 10.2829 6.83763 10.3415 6.77903C10.4001 6.72042 10.4796 6.6875 10.5625 6.6875C10.6454 6.6875 10.7249 6.72042 10.7835 6.77903C10.8421 6.83763 10.875 6.91712 10.875 7V8.5625C10.875 8.89402 10.7433 9.21196 10.5089 9.44638C10.2745 9.6808 9.95652 9.8125 9.625 9.8125H2.125C1.79348 9.8125 1.47554 9.6808 1.24112 9.44638C1.0067 9.21196 0.875 8.89402 0.875 8.5625V7C0.875 6.91712 0.907924 6.83763 0.966529 6.77903C1.02513 6.72042 1.10462 6.6875 1.1875 6.6875Z" fill="white"/>
<path d="M5.65366 1.21583C5.68269 1.18673 5.71717 1.16364 5.75514 1.14789C5.7931 1.13213 5.8338 1.12402 5.87491 1.12402C5.91601 1.12402 5.95671 1.13213 5.99468 1.14789C6.03264 1.16364 6.06713 1.18673 6.09616 1.21583L7.97116 3.09083C8.02984 3.14951 8.0628 3.2291 8.0628 3.31208C8.0628 3.39507 8.02984 3.47465 7.97116 3.53333C7.91248 3.59201 7.83289 3.62498 7.74991 3.62498C7.66692 3.62498 7.58734 3.59201 7.52866 3.53333L6.18741 2.19146V7.68708C6.18741 7.76996 6.15448 7.84945 6.09588 7.90805C6.03727 7.96666 5.95779 7.99958 5.87491 7.99958C5.79203 7.99958 5.71254 7.96666 5.65394 7.90805C5.59533 7.84945 5.56241 7.76996 5.56241 7.68708V2.19146L4.22116 3.53333C4.1921 3.56239 4.15761 3.58543 4.11965 3.60116C4.08168 3.61688 4.041 3.62498 3.99991 3.62498C3.95882 3.62498 3.91813 3.61688 3.88017 3.60116C3.8422 3.58543 3.80771 3.56239 3.77866 3.53333C3.7496 3.50428 3.72655 3.46978 3.71083 3.43182C3.69511 3.39386 3.68701 3.35317 3.68701 3.31208C3.68701 3.27099 3.69511 3.2303 3.71083 3.19234C3.72655 3.15438 3.7496 3.11989 3.77866 3.09083L5.65366 1.21583Z" fill="white"/>
</g>
<defs>
<clipPath id="clip0_267_1810">
<rect width="10" height="10" fill="white" transform="translate(0.875 0.5)"/>
</clipPath>
</defs>
</svg>
